Stairs_down
version=1
nRows=21
nColumns=18
inDegrees=yes

Units are S.I. units (second, meters, Newtons, ...)
Angles are in degrees.

endheader
time	pelvis_tilt	pelvis_list	pelvis_rotation	pelvis_tx	pelvis_ty	pelvis_tz	hip_flexion_r	hip_adduction_r	hip_rotation_r	knee_angle_r	ankle_angle_r	hip_flexion_l	hip_adduction_l	hip_rotation_l	knee_angle_l	ankle_angle_l	lumbar_extension
2.067	-0.40560974	2.94476972	-0.06160138	0.88529718	1.11718173	0.0054469	29.92696717	-3.55716227	0	-40.78541585	-25.77360753	0.32552897	10.79236635	0	-23.97932843	14.56671683	-5.00000214
2.075	-0.1849234	2.91923573	0.33995539	0.89305232	1.11327484	0.00524371	27.91375941	-3.13074388	0	-36.00050647	-28.24092174	-0.14425849	10.70860883	0	-24.85805735	15.93832507	-5.00000214
2.083	0.0265545	2.91811618	0.77960357	0.90098274	1.10898993	0.00486991	25.98455362	-2.73889395	0	-31.60285224	-30.27226464	-0.54237351	10.63027306	0	-25.8638619	17.38524954	-5.00000214
2.092	0.23473736	2.94279146	1.14007458	0.90884288	1.10434508	0.00452325	24.18771637	-2.35409717	0	-27.62662961	-31.68591871	-0.88768292	10.58711384	0	-26.97952874	18.93804863	-5.00000214
2.1	0.38221695	3.01349185	1.44475035	0.916416	1.09927872	0.00412862	22.57911415	-2.01093127	0	-24.12824878	-32.42916	-1.05148794	10.60800937	0	-28.29313439	20.43853479	-5.00000214
2.108	0.50181766	3.12455386	1.69191922	0.92379052	1.0938787	0.00361153	21.16072956	-1.71359735	0	-21.14208809	-33.12711286	-1.06609436	10.70867809	0	-29.79987494	21.82734947	-5.00000214
2.117	0.67190236	3.24679371	1.910545	0.93139907	1.08826595	0.00291934	19.8040698	-1.46672829	0	-18.63271244	-34.2638812	-1.03178814	10.84462892	0	-31.53618934	23.17708196	-5.00000214
2.125	0.82573499	3.37876549	2.09451824	0.93893955	1.08218782	0.00212053	18.60519549	-1.25861571	0	-16.68937327	-35.61562134	-0.87582408	11.01115356	0	-33.45036576	24.49192513	-5.00000214
2.133	0.93805411	3.48213185	2.32434285	0.94600568	1.07572819	0.00148805	17.53533366	-0.99887625	0	-15.18882305	-36.77541862	-0.47654001	11.10845279	0	-35.69123293	25.55471209	-5.00000214
2.142	1.05711353	3.53964104	2.6999654	0.95280546	1.06902086	0.00085083	16.52992753	-0.68295646	0	-14.15091349	-37.44107908	0.14217631	11.11341738	0	-38.36780944	26.2305446	-5.00000214
2.15	1.0184901	3.58403184	3.17207914	0.9592234	1.06173321	-0.00004136	15.83004832	-0.38632423	0	-13.55554334	-38.34347008	1.14538295	11.12563289	0	-41.4361456	26.94485487	-5.00000214
2.158	1.00833857	3.61919193	3.71548812	0.96577827	1.05408134	-0.00098913	15.12194414	-0.08737187	0	-13.35804287	-38.58819816	2.24218297	11.09781428	0	-44.70700698	27.21872669	-5.00000214
2.167	0.98897653	3.60692493	4.23175371	0.97188841	1.04631803	-0.00169049	14.59032178	0.23029882	0	-13.77510916	-37.45361496	3.55366153	11.02058518	0	-48.22918171	27.40960231	-5.00000214
2.175	0.95712074	3.60876524	4.65390332	0.97780324	1.03791242	-0.00230585	14.35643656	0.4629986	0	-15.09219853	-34.03571515	5.00988401	10.97706712	0	-51.93509852	27.46442669	-5.00000214
2.183	0.96060608	3.54560321	5.15570775	0.98396884	1.02952166	-0.00302474	14.06786986	0.57880749	0	-16.60512184	-27.93380202	6.39876487	10.77984337	0	-55.53136177	27.120948	-5.00000214
2.192	0.9933969	3.39996935	5.74937987	0.99022386	1.02076817	-0.00340075	13.81979347	0.77593027	0	-18.25374084	-22.17882546	7.7875338	10.37714005	0	-59.1160726	26.72761968	-5.00000214
2.2	1.0470007	3.20120688	6.32234491	0.99645436	1.01200422	-0.00348819	13.64953151	1.13045736	0	-19.54268903	-18.15415442	9.16453228	9.85366062	0	-62.56352671	26.25400519	-5.00000214
2.208	1.08254939	2.96207969	6.85718702	1.0023104	1.00299752	-0.00339894	13.69431837	1.53669634	0	-20.96340678	-14.37345137	10.60814451	9.27686504	0	-65.94284076	26.01782887	-5.00000214
2.217	1.09019434	2.75257387	7.24719763	1.00774217	0.99411144	-0.00316826	13.98661145	1.88723542	0	-22.66892375	-10.59714159	12.01964517	8.73108487	0	-68.9697091	26.05359884	-5.00000214
2.225	1.10303316	2.50231272	7.50212238	1.01276306	0.98565982	-0.00258103	14.3343867	2.32891537	0	-24.37002065	-7.14562414	13.39215472	8.04523952	0	-71.60289179	25.96767288	-5.00000214
2.233	1.1192759	2.1763525	7.78579412	1.01748763	0.97790005	-0.00180635	14.57964319	2.91428231	0	-25.76024481	-4.10730829	14.81218424	7.20672518	0	-74.04487678	25.79167363	-5.00000214
